<svg xmlns="http://www.w3.org/2000/svg" width="1000" height="1200" viewBox="0 0 1000 1200" role="img" aria-label="Luxury ring demo image">
  <defs>
    <linearGradient id="bg" x1="0" y1="0" x2="1" y2="1">
      <stop offset="0%" stop-color="#fcfaf7" />
      <stop offset="100%" stop-color="#f1e5d2" />
    </linearGradient>
    <radialGradient id="glow" cx="50%" cy="35%" r="55%">
      <stop offset="0%" stop-color="#ffe9a8" stop-opacity="0.9" />
      <stop offset="65%" stop-color="#d4a43d" stop-opacity="0.2" />
      <stop offset="100%" stop-color="#d4a43d" stop-opacity="0" />
    </radialGradient>
    <linearGradient id="gold" x1="0" y1="0" x2="1" y2="1">
      <stop offset="0%" stop-color="#fff1bf" />
      <stop offset="35%" stop-color="#e7c45b" />
      <stop offset="100%" stop-color="#8d6814" />
    </linearGradient>
  </defs>
  <rect width="1000" height="1200" fill="url(#bg)" />
  <circle cx="500" cy="360" r="260" fill="url(#glow)" />
  <ellipse cx="500" cy="840" rx="250" ry="46" fill="#000000" opacity="0.12" />
  <g transform="translate(170,170)">
    <circle cx="330" cy="470" r="155" fill="#fffaf0" stroke="url(#gold)" stroke-width="28" />
    <circle cx="330" cy="470" r="74" fill="none" stroke="#e8d7ad" stroke-width="12" />
    <polygon points="330,236 368,340 480,346 395,412 425,521 330,460 235,521 265,412 180,346 292,340" fill="#fff6ce" stroke="url(#gold)" stroke-width="8" />
    <polygon points="330,250 360,340 456,345 384,400 410,492 330,440 250,492 276,400 204,345 300,340" fill="#ffffff" opacity="0.45" />
    <path d="M182 670 C256 760, 404 760, 478 670" fill="none" stroke="#c8a03c" stroke-width="12" stroke-linecap="round" />
    <path d="M205 655 C265 730, 395 730, 455 655" fill="none" stroke="#fff2cf" stroke-width="6" stroke-linecap="round" />
  </g>
</svg>
